<svg xmlns="http://www.w3.org/2000/svg" viewBox="0 0 280 50" width="280" height="50">
  <defs>
    <style>
      .wing-blue { fill: #2B5AA0; stroke: #2B5AA0; stroke-width: 0.3; }
      .text-blue { fill: #2B5AA0; font-family: 'Arial', sans-serif; font-weight: bold; }
      .text-red { fill: #C5282F; font-family: 'Arial', sans-serif; font-weight: 500; }
    </style>
  </defs>
  
  <!-- Left Wing -->
  <g class="wing-blue">
    <!-- Outer wing curves -->
    <path d="M3,25 Q1,20 5,21 Q10,22 15,23 Q20,24 25,23 Q30,22 35,23 Q40,24 45,23 Q50,22 55,23 Q57,24 56,26 Q55,28 50,27 Q45,26 40,27 Q35,28 30,27 Q25,26 20,27 Q15,28 10,27 Q5,26 3,25 Z"/>
    
    <!-- Middle wing layer -->
    <path d="M5,24 Q4,21 7,22 Q11,22 15,23 Q19,24 23,23 Q27,22 31,23 Q35,24 39,23 Q42,22 41,25 Q40,27 35,26 Q31,25 27,26 Q23,27 19,26 Q15,25 11,26 Q7,27 5,24 Z"/>
    
    <!-- Inner wing layer -->
    <path d="M8,23 Q7,22 9,22 Q12,22 15,23 Q18,24 21,23 Q24,22 27,23 Q30,24 33,23 Q35,22 34,24 Q33,26 30,25 Q27,24 24,25 Q21,26 18,25 Q15,24 12,25 Q9,26 8,23 Z"/>
  </g>
  
  <!-- Right Wing (mirrored) -->
  <g class="wing-blue">
    <!-- Outer wing curves -->
    <path d="M57,25 Q59,20 55,21 Q50,22 45,23 Q40,24 35,23 Q30,22 25,23 Q20,24 15,23 Q10,22 5,23 Q3,24 4,26 Q5,28 10,27 Q15,26 20,27 Q25,28 30,27 Q35,26 40,27 Q45,28 50,27 Q55,26 57,25 Z"/>
    
    <!-- Middle wing layer -->
    <path d="M55,24 Q56,21 53,22 Q49,22 45,23 Q41,24 37,23 Q33,22 29,23 Q25,24 21,23 Q18,22 19,25 Q20,27 25,26 Q29,25 33,26 Q37,27 41,26 Q45,25 49,26 Q53,27 55,24 Z"/>
    
    <!-- Inner wing layer -->
    <path d="M52,23 Q53,22 51,22 Q48,22 45,23 Q42,24 39,23 Q36,22 33,23 Q30,24 27,23 Q25,22 26,24 Q27,26 30,25 Q33,24 36,25 Q39,26 42,25 Q45,24 48,25 Q51,26 52,23 Z"/>
  </g>
  
  <!-- Arthomed Text -->
  <text x="70" y="22" class="text-blue" font-size="16" font-weight="bold">Arthomed</text>
  
  <!-- Relief. Recover. Restore Text -->
  <text x="70" y="35" class="text-red" font-size="7">Relief. Recover. Restore</text>
</svg>