<svg xmlns="http://www.w3.org/2000/svg" viewBox="0 0 600 120" width="600" height="120">
  <defs>
    <style>
      .wing-blue { fill: #2B5AA0; stroke: #2B5AA0; stroke-width: 0.8; }
      .text-blue { fill: #2B5AA0; font-family: 'Arial', sans-serif; font-weight: bold; }
      .text-red { fill: #C5282F; font-family: 'Arial', sans-serif; font-weight: normal; }
    </style>
  </defs>
  
  <!-- Left Wing -->
  <g class="wing-blue">
    <!-- Outer wing layer -->
    <path d="M10,60 C5,45 15,35 30,40 C45,45 60,50 75,45 C90,40 105,35 120,40 C135,45 150,50 165,45 C170,50 165,65 150,60 C135,55 120,60 105,55 C90,50 75,55 60,50 C45,45 30,50 15,55 Q10,65 10,60 Z"/>
    
    <!-- Middle wing feathers -->
    <path d="M20,55 C18,45 25,40 35,43 C50,47 65,50 80,47 C95,44 110,41 125,44 C140,47 155,50 165,47 C165,52 155,60 140,57 C125,54 110,57 95,54 C80,51 65,54 50,51 C35,48 25,51 20,55 Z"/>
    
    <!-- Inner wing details -->
    <path d="M30,52 C29,47 33,44 40,46 C50,48 60,50 70,48 C80,46 90,44 100,46 C110,48 120,50 130,48 C135,50 130,56 120,54 C110,52 100,54 90,52 C80,50 70,52 60,50 C50,48 40,50 30,52 Z"/>
    
    <!-- Wing tip details -->
    <path d="M40,50 C40,47 43,45 47,46 C52,47 57,48 62,47 C67,46 72,45 77,46 C82,47 87,48 92,47 C95,48 92,52 87,51 C82,50 77,51 72,50 C67,49 62,50 57,49 C52,48 47,49 40,50 Z"/>
  </g>
  
  <!-- Right Wing -->
  <g class="wing-blue">
    <!-- Outer wing layer -->
    <path d="M190,60 C195,45 185,35 170,40 C155,45 140,50 125,45 C110,40 95,35 80,40 C65,45 50,50 35,45 C30,50 35,65 50,60 C65,55 80,60 95,55 C110,50 125,55 140,50 C155,45 170,50 185,55 Q190,65 190,60 Z"/>
    
    <!-- Middle wing feathers -->
    <path d="M180,55 C182,45 175,40 165,43 C150,47 135,50 120,47 C105,44 90,41 75,44 C60,47 45,50 35,47 C35,52 45,60 60,57 C75,54 90,57 105,54 C120,51 135,54 150,51 C165,48 175,51 180,55 Z"/>
    
    <!-- Inner wing details -->
    <path d="M170,52 C171,47 167,44 160,46 C150,48 140,50 130,48 C120,46 110,44 100,46 C90,48 80,50 70,48 C65,50 70,56 80,54 C90,52 100,54 110,52 C120,50 130,52 140,50 C150,48 160,50 170,52 Z"/>
    
    <!-- Wing tip details -->
    <path d="M160,50 C160,47 157,45 153,46 C148,47 143,48 138,47 C133,46 128,45 123,46 C118,47 113,48 108,47 C105,48 108,52 113,51 C118,50 123,51 128,50 C133,49 138,50 143,49 C148,48 153,49 160,50 Z"/>
  </g>
  
  <!-- Arthomed Text -->
  <text x="220" y="52" class="text-blue" font-size="36">Arthomed</text>
  
  <!-- Relief. Recover. Restore Text -->
  <text x="220" y="75" class="text-red" font-size="14">Relief. Recover. Restore</text>
</svg>